<svg width="138" height="39" viewBox="0 0 138 39" fill="none" xmlns="http://www.w3.org/2000/svg">
<path d="M39 19.5C39 30.2696 30.2695 39 19.5 39C8.73044 39 0 30.2696 0 19.5C0 8.73045 8.73044 0 19.5 0C30.2695 0 39 8.73045 39 19.5Z" fill="white"/>
<path d="M19.4997 0C13.4698 0 8.07986 2.73862 4.50325 7.03788C5.15391 10.2712 6.08256 13.1571 7.26854 15.6231C6.86988 16.6617 6.57522 17.7217 6.42189 18.7183L5.48724 23.7936C3.69394 21.615 1.94397 18.735 0.541324 14.9404C0.190663 16.4044 0 17.9297 0 19.4997C0 24.4116 1.81997 28.8955 4.81725 32.3248L7.29587 18.867C7.41787 18.0757 7.63453 17.2437 7.92186 16.4177C7.95986 16.3077 7.99719 16.1984 8.03853 16.0871C8.09119 15.9457 8.14786 15.8044 8.20452 15.6637C8.24319 15.5677 8.28252 15.4717 8.32385 15.3751C8.38519 15.2311 8.44919 15.0884 8.51452 14.9471C8.56185 14.8444 8.61118 14.7424 8.66118 14.6397C8.72585 14.5071 8.79118 14.3744 8.85918 14.2444C8.93184 14.1051 9.00984 13.9664 9.08851 13.8271C9.14184 13.7324 9.19251 13.6358 9.24784 13.5431C11.1031 10.4118 14.3564 7.5252 19.5677 7.5252C19.575 7.5252 19.581 7.5252 19.5877 7.5252C24.4702 7.53187 28.7535 10.4732 30.5008 15.0157C32.2814 19.6457 31.0255 24.6602 27.2222 28.1035C23.6709 31.3175 18.0624 31.9235 12.9351 29.6475C12.7298 29.5562 12.5091 29.4522 12.2811 29.3382L13.4158 23.1796C14.0311 23.5909 14.6697 23.9489 15.3337 24.2436C18.327 25.5729 21.4376 25.3656 23.2556 23.7203C25.2342 21.929 25.8802 19.4677 24.9842 17.1377C24.2976 15.3511 22.5163 13.4404 19.5803 13.4364C19.577 13.4364 19.573 13.4364 19.5697 13.4364C14.3064 13.4364 13.2384 19.1583 13.1338 19.8117L13.1191 19.897L10.0505 36.5567C12.8504 38.1113 16.0717 39 19.5017 39C30.2715 39 39.0013 30.2695 39.0013 19.5003C39 8.73052 30.2695 0 19.4997 0Z" fill="#E83330"/>
<path d="M73.2058 11.4404C71.0141 11.3511 68.9641 12.1081 67.1127 13.6888C65.2711 15.2624 64.1398 17.1791 63.7514 19.3865C63.37 21.5441 63.7967 23.4381 65.0174 25.016C66.245 26.6024 67.942 27.4445 70.0628 27.5153C70.1493 27.5182 70.2344 27.5196 70.3208 27.5196C72.1227 27.5125 73.8763 26.9327 75.3266 25.8652L75.216 26.4946C75.1593 26.8179 75.3748 27.1255 75.698 27.1836C75.7321 27.1893 75.7661 27.1921 75.8015 27.1921H77.697C77.9847 27.1921 78.2314 26.9851 78.2825 26.7016L79.5385 19.5793C79.9865 17.4343 79.581 15.5417 78.3349 13.9497C77.0874 12.3577 75.3592 11.5127 73.2058 11.4404ZM74.3527 22.9944C73.1491 24.0577 71.8774 24.5382 70.4725 24.4844C69.3001 24.4716 68.2043 23.8975 67.5266 22.9391C66.7965 21.9453 66.5711 20.8098 66.8391 19.463C67.0985 18.0723 67.847 16.8205 68.9471 15.9316C69.982 14.9974 71.3245 14.4771 72.7195 14.4742C73.9883 14.4742 74.9623 14.9236 75.6952 15.848C76.4395 16.7879 76.7018 17.8965 76.4948 19.2376C76.2609 20.7091 75.4996 22.0432 74.3527 22.9944Z" fill="white"/>
<path d="M114.478 11.4404C112.289 11.3511 110.237 12.1081 108.385 13.6888C106.544 15.2624 105.412 17.1791 105.024 19.3865C104.642 21.5441 105.069 23.4381 106.29 25.016C107.518 26.6024 109.214 27.4445 111.335 27.5153C111.422 27.5182 111.507 27.5196 111.593 27.5196C113.395 27.5125 115.149 26.9327 116.599 25.8652L116.488 26.4946C116.432 26.8179 116.647 27.1255 116.971 27.1836C117.005 27.1893 117.039 27.1921 117.074 27.1921H118.969C119.257 27.1921 119.504 26.9851 119.555 26.7016L120.811 19.5793C121.259 17.4343 120.853 15.5417 119.607 13.9497C118.358 12.3577 116.632 11.5127 114.478 11.4404ZM115.625 22.9944C114.422 24.0577 113.148 24.5382 111.745 24.4844C110.573 24.4716 109.477 23.8975 108.799 22.9391C108.069 21.9453 107.844 20.8098 108.112 19.463C108.371 18.0723 109.119 16.8205 110.22 15.9316C111.254 14.9974 112.597 14.4771 113.992 14.4742C115.261 14.4742 116.235 14.9236 116.968 15.848C117.712 16.7879 117.974 17.8965 117.767 19.2376C117.533 20.7091 116.772 22.0432 115.625 22.9944Z" fill="white"/>
<path d="M136.592 13.9526C135.36 12.3577 133.649 11.5128 131.506 11.4405C129.334 11.3724 127.288 12.1337 125.438 13.7144C123.596 15.2866 122.465 17.2033 122.075 19.412C121.695 21.5697 122.119 23.4637 123.337 25.0416C124.563 26.6294 126.274 27.4615 128.418 27.5154C128.51 27.5182 128.604 27.5196 128.696 27.5196C130.768 27.5196 132.719 26.7541 134.498 25.2415C136.348 23.6679 137.481 21.7682 137.865 19.5935C138.245 17.4372 137.817 15.539 136.592 13.9526ZM128.795 24.483C127.621 24.4915 126.517 23.923 125.842 22.9618C125.119 21.9652 124.898 20.8268 125.166 19.4744C125.428 18.0766 126.177 16.8177 127.28 15.9217C128.292 14.9946 129.613 14.4785 130.985 14.4743C131.007 14.4743 131.028 14.4743 131.048 14.4743C132.316 14.4743 133.285 14.9237 134.009 15.8494C134.748 16.7936 135.014 17.9064 134.821 19.2532C134.597 20.6936 133.896 21.9227 132.678 23.0058C131.474 24.0761 130.208 24.5567 128.795 24.483Z" fill="white"/>
<path d="M56.01 11.4659C53.8452 11.3978 51.791 12.1605 49.9325 13.7398C48.0824 15.312 46.9497 17.2131 46.5669 19.3849L44.7112 29.9083C44.6545 30.2315 44.87 30.5391 45.1932 30.5973C45.2272 30.6029 45.2613 30.6058 45.2967 30.6058H47.1425C47.4303 30.6058 47.677 30.3988 47.728 30.1152L48.495 25.7673C49.6503 26.8745 51.1346 27.4713 52.9266 27.5436C55.1027 27.6145 57.1441 26.849 58.9942 25.2697C60.8357 23.6961 61.967 21.7794 62.3569 19.5721C62.7368 17.4144 62.3129 15.5204 61.0952 13.9439C59.8675 12.3533 58.1563 11.5197 56.01 11.4659ZM53.3675 24.5084C52.0774 24.5084 51.0935 24.0576 50.3578 23.1304C49.6107 22.1891 49.3484 21.0762 49.5554 19.7323C49.7794 18.2905 50.4811 17.0628 51.7031 15.9783C52.8273 14.9788 54.0068 14.4911 55.3097 14.4911C55.4047 14.4911 55.4996 14.494 55.596 14.4982C56.7727 14.4897 57.8799 15.0582 58.5575 16.0208C59.2834 17.0189 59.5145 18.1586 59.2621 19.504C58.9857 20.899 58.2287 22.1522 57.1229 23.0468C55.9675 24.0306 54.7384 24.5084 53.3675 24.5084Z" fill="white"/>
<path d="M97.8537 11.5651C96.5338 11.6289 95.2608 12.0741 94.189 12.8481L94.8511 9.0913C94.9078 8.76807 94.6923 8.46044 94.369 8.40231C94.335 8.39664 94.301 8.3938 94.2656 8.3938H92.3701C92.0824 8.3938 91.8357 8.60079 91.7846 8.88432L88.68 26.4946C88.6232 26.8178 88.8387 27.1254 89.162 27.1836C89.196 27.1892 89.23 27.1921 89.2655 27.1921H91.1609C91.4487 27.1921 91.6953 26.9851 91.7464 26.7015L93.2321 18.2721C93.4036 17.2245 93.9622 16.2789 94.7972 15.6239C95.6109 14.9349 96.6416 14.5536 97.7077 14.5465C98.6376 14.4841 99.5407 14.8754 100.133 15.5956C100.75 16.3171 100.994 17.2868 100.788 18.214L99.3281 26.4932C99.2713 26.8164 99.4868 27.124 99.8101 27.1821C99.8441 27.1878 99.8781 27.1906 99.9135 27.1906H101.809C102.097 27.1906 102.343 26.9837 102.394 26.7001L103.819 18.6208C104.172 16.6177 103.758 14.9009 102.589 13.5201C101.413 12.1308 99.8186 11.4673 97.8537 11.5651Z" fill="white"/>
<path d="M85.5299 14.7237H88.3227C88.6104 14.7237 88.8571 14.5167 88.9082 14.2332L89.22 12.4625C89.2767 12.1393 89.0613 11.8317 88.738 11.7735C88.704 11.7679 88.67 11.765 88.6345 11.765H86.0516L86.5222 9.0913C86.5789 8.76807 86.3634 8.46044 86.0402 8.40231C86.0062 8.39664 85.9722 8.3938 85.9367 8.3938H84.0413C83.7535 8.3938 83.5068 8.60079 83.4558 8.88432L82.9483 11.7636H82.1742C81.8865 11.7636 81.6398 11.9706 81.5887 12.2541L81.2769 14.0248C81.2201 14.348 81.4356 14.6556 81.7589 14.7138C81.7929 14.7194 81.8269 14.7223 81.8623 14.7223H82.428L81.0784 22.3791C80.8076 23.9187 81.0387 25.1393 81.7688 26.0083C82.5939 26.9922 84.0427 27.4912 86.0728 27.4912C86.3606 27.4912 86.6073 27.2842 86.6583 27.0007L86.9348 25.4299C86.9915 25.1067 86.776 24.799 86.4528 24.7409C86.4187 24.7353 86.3847 24.7324 86.3493 24.7324C85.4278 24.7324 84.7927 24.5311 84.4595 24.1342C84.1363 23.75 84.0498 23.1191 84.2015 22.2628L85.5299 14.7237Z" fill="white"/>
</svg>
