<svg width="905" height="130" viewBox="0 0 905 130" fill="none" xmlns="http://www.w3.org/2000/svg">
<path d="M9.82295 9.07412C12.3287 9.07412 14.36 7.04281 14.36 4.53706C14.36 2.03131 12.3287 0 9.82295 0C7.3172 0 5.28589 2.03131 5.28589 4.53706C5.28589 7.04281 7.3172 9.07412 9.82295 9.07412Z" fill="#FEECEC"/>
<path d="M21.9144 21.1654C24.4201 21.1654 26.4514 19.1341 26.4514 16.6284C26.4514 14.1226 24.4201 12.0913 21.9144 12.0913C19.4086 12.0913 17.3773 14.1226 17.3773 16.6284C17.3773 19.1341 19.4086 21.1654 21.9144 21.1654Z" fill="#FEECEC"/>
<path d="M34.0059 33.2572C36.5117 33.2572 38.543 31.2259 38.543 28.7202C38.543 26.2144 36.5117 24.1831 34.0059 24.1831C31.5002 24.1831 29.4689 26.2144 29.4689 28.7202C29.4689 31.2259 31.5002 33.2572 34.0059 33.2572Z" fill="#FEECEC"/>
<path d="M46.8572 45.3485C49.363 45.3485 51.3943 43.3172 51.3943 40.8115C51.3943 38.3057 49.363 36.2744 46.8572 36.2744C44.3515 36.2744 42.3202 38.3057 42.3202 40.8115C42.3202 43.3172 44.3515 45.3485 46.8572 45.3485Z" fill="#FEECEC"/>
<path d="M58.9487 57.4398C61.4545 57.4398 63.4858 55.4085 63.4858 52.9028C63.4858 50.397 61.4545 48.3657 58.9487 48.3657C56.443 48.3657 54.4117 50.397 54.4117 52.9028C54.4117 55.4085 56.443 57.4398 58.9487 57.4398Z" fill="#FEECEC"/>
<path d="M21.9144 9.07412C24.4201 9.07412 26.4514 7.04281 26.4514 4.53706C26.4514 2.03131 24.4201 0 21.9144 0C19.4086 0 17.3773 2.03131 17.3773 4.53706C17.3773 7.04281 19.4086 9.07412 21.9144 9.07412Z" fill="#FEECEC"/>
<path d="M34.0059 21.1654C36.5117 21.1654 38.543 19.1341 38.543 16.6284C38.543 14.1226 36.5117 12.0913 34.0059 12.0913C31.5002 12.0913 29.4689 14.1226 29.4689 16.6284C29.4689 19.1341 31.5002 21.1654 34.0059 21.1654Z" fill="#FEECEC"/>
<path d="M46.0974 33.2572C48.6032 33.2572 50.6345 31.2259 50.6345 28.7202C50.6345 26.2144 48.6032 24.1831 46.0974 24.1831C43.5917 24.1831 41.5604 26.2144 41.5604 28.7202C41.5604 31.2259 43.5917 33.2572 46.0974 33.2572Z" fill="#FEECEC"/>
<path d="M58.9487 45.3485C61.4545 45.3485 63.4858 43.3172 63.4858 40.8115C63.4858 38.3057 61.4545 36.2744 58.9487 36.2744C56.443 36.2744 54.4117 38.3057 54.4117 40.8115C54.4117 43.3172 56.443 45.3485 58.9487 45.3485Z" fill="#FEECEC"/>
<path d="M71.0402 57.4398C73.546 57.4398 75.5773 55.4085 75.5773 52.9028C75.5773 50.397 73.546 48.3657 71.0402 48.3657C68.5345 48.3657 66.5032 50.397 66.5032 52.9028C66.5032 55.4085 68.5345 57.4398 71.0402 57.4398Z" fill="#FEECEC"/>
<path d="M34.7658 9.07412C37.2716 9.07412 39.3029 7.04281 39.3029 4.53706C39.3029 2.03131 37.2716 0 34.7658 0C32.2601 0 30.2288 2.03131 30.2288 4.53706C30.2288 7.04281 32.2601 9.07412 34.7658 9.07412Z" fill="#FEECEC"/>
<path d="M46.8572 21.1654C49.363 21.1654 51.3943 19.1341 51.3943 16.6284C51.3943 14.1226 49.363 12.0913 46.8572 12.0913C44.3515 12.0913 42.3202 14.1226 42.3202 16.6284C42.3202 19.1341 44.3515 21.1654 46.8572 21.1654Z" fill="#FEECEC"/>
<path d="M58.9487 33.2572C61.4545 33.2572 63.4858 31.2259 63.4858 28.7202C63.4858 26.2144 61.4545 24.1831 58.9487 24.1831C56.443 24.1831 54.4117 26.2144 54.4117 28.7202C54.4117 31.2259 56.443 33.2572 58.9487 33.2572Z" fill="#FEECEC"/>
<path d="M71.8001 45.3485C74.3059 45.3485 76.3372 43.3172 76.3372 40.8115C76.3372 38.3057 74.3059 36.2744 71.8001 36.2744C69.2944 36.2744 67.2631 38.3057 67.2631 40.8115C67.2631 43.3172 69.2944 45.3485 71.8001 45.3485Z" fill="#FEECEC"/>
<path d="M46.8572 9.07412C49.363 9.07412 51.3943 7.04281 51.3943 4.53706C51.3943 2.03131 49.363 0 46.8572 0C44.3515 0 42.3202 2.03131 42.3202 4.53706C42.3202 7.04281 44.3515 9.07412 46.8572 9.07412Z" fill="#FEECEC"/>
<path d="M58.9487 21.1654C61.4545 21.1654 63.4858 19.1341 63.4858 16.6284C63.4858 14.1226 61.4545 12.0913 58.9487 12.0913C56.443 12.0913 54.4117 14.1226 54.4117 16.6284C54.4117 19.1341 56.443 21.1654 58.9487 21.1654Z" fill="#FEECEC"/>
<path d="M71.0402 33.2572C73.546 33.2572 75.5773 31.2259 75.5773 28.7202C75.5773 26.2144 73.546 24.1831 71.0402 24.1831C68.5345 24.1831 66.5032 26.2144 66.5032 28.7202C66.5032 31.2259 68.5345 33.2572 71.0402 33.2572Z" fill="#FEECEC"/>
<path d="M83.8916 45.3485C86.3973 45.3485 88.4286 43.3172 88.4286 40.8115C88.4286 38.3057 86.3973 36.2744 83.8916 36.2744C81.3858 36.2744 79.3545 38.3057 79.3545 40.8115C79.3545 43.3172 81.3858 45.3485 83.8916 45.3485Z" fill="#FEECEC"/>
<path d="M58.9487 9.07412C61.4545 9.07412 63.4858 7.04281 63.4858 4.53706C63.4858 2.03131 61.4545 0 58.9487 0C56.443 0 54.4117 2.03131 54.4117 4.53706C54.4117 7.04281 56.443 9.07412 58.9487 9.07412Z" fill="#FEECEC"/>
<path d="M71.0402 21.1654C73.546 21.1654 75.5773 19.1341 75.5773 16.6284C75.5773 14.1226 73.546 12.0913 71.0402 12.0913C68.5345 12.0913 66.5032 14.1226 66.5032 16.6284C66.5032 19.1341 68.5345 21.1654 71.0402 21.1654Z" fill="#FEECEC"/>
<path d="M83.1428 33.2572C85.6485 33.2572 87.6798 31.2259 87.6798 28.7202C87.6798 26.2144 85.6485 24.1831 83.1428 24.1831C80.637 24.1831 78.6057 26.2144 78.6057 28.7202C78.6057 31.2259 80.637 33.2572 83.1428 33.2572Z" fill="#FEECEC"/>
<path d="M0 130C0 130 78.8149 51.4384 82.1516 47.9586C85.6645 44.3025 88.1753 34.2152 82.7683 21.0996C82.7683 21.0996 110.299 49.4893 113.25 52.4956C116.202 55.502 121.84 68.3313 107.843 82.3279C103.405 86.7659 60.6557 130 60.6557 130H0Z" fill="url(#paint0_linear_10_147)"/>
<path d="M166.634 14.8526H140.903V0.943359H208.361V14.8526H182.63V82.0805H166.634V14.8526Z" fill="#FEECEC"/>
<path d="M220.063 79.0598C217.975 77.0527 216.932 74.4234 216.932 71.1819V0.943359H278.821V14.8526H232.928V33.629H275.348V47.5382H232.928V68.1712H278.821V82.0805H228.171C224.85 82.0805 222.14 81.0769 220.063 79.0698V79.0598Z" fill="#FEECEC"/>
<path d="M300.909 79.1704C296.393 76.6213 292.89 73.0086 290.422 68.332C287.943 63.6555 286.708 58.2664 286.708 52.1648V30.8393C286.708 24.7378 287.963 19.3487 290.472 14.6721C292.981 9.99559 296.533 6.3828 301.14 3.83378C305.736 1.28477 311.045 0.0102539 317.076 0.0102539H329.359C335.15 0.0102539 340.258 1.24462 344.664 3.72339C349.069 6.20216 352.491 9.65438 354.92 14.1001C357.348 18.5458 358.573 23.7041 358.573 29.5749H342.807C342.807 24.9385 341.573 21.2153 339.094 18.3953C336.625 15.5753 333.374 14.1603 329.359 14.1603H317.076C312.751 14.1603 309.268 15.766 306.649 18.9673C304.02 22.1787 302.705 26.3635 302.705 31.5418V51.4824C302.705 56.6607 303.98 60.8556 306.529 64.0569C309.078 67.2682 312.44 68.8639 316.614 68.8639H329.129C333.223 68.8639 336.565 67.2783 339.154 64.1071C341.743 60.9358 343.038 56.7711 343.038 51.5928H358.804C358.804 57.8549 357.569 63.3544 355.09 68.1112C352.612 72.8681 349.139 76.531 344.664 79.1202C340.178 81.7093 334.999 83.0039 329.129 83.0039H316.614C310.663 83.0039 305.425 81.7294 300.909 79.1804V79.1704Z" fill="#FEECEC"/>
<path d="M368.769 0.943359H384.765V34.4419H422.549V0.943359H438.546V82.0704H422.549V48.3411H384.765V82.0704H368.769V0.943359Z" fill="#FEECEC"/>
<path d="M452.907 0.943359H467.167L506.115 56.1086V0.943359H521.76V82.0704H507.51L468.562 26.9052V82.0704H452.917V0.943359H452.907Z" fill="#FEECEC"/>
<path d="M548.585 79.12C543.909 76.5308 540.276 72.8979 537.687 68.2214C535.097 63.5449 533.803 58.1257 533.803 51.9338V31.0699C533.803 24.8881 535.097 19.4589 537.687 14.7823C540.276 10.1058 543.909 6.4729 548.585 3.88374C553.262 1.29458 558.651 0 564.752 0H577.036C583.137 0 588.526 1.29458 593.203 3.88374C597.88 6.4729 601.512 10.1058 604.102 14.7823C606.691 19.4589 607.985 24.8881 607.985 31.0699V51.9338C607.985 58.1156 606.691 63.5449 604.102 68.2214C601.512 72.8979 597.88 76.5308 593.203 79.12C588.526 81.7091 583.137 83.0037 577.036 83.0037H564.752C558.651 83.0037 553.262 81.7091 548.585 79.12ZM577.036 68.8637C581.522 68.8637 585.124 67.2379 587.874 63.9965C590.614 60.755 591.989 56.4999 591.989 51.2514V31.7825C591.989 26.5339 590.614 22.2788 587.874 19.0374C585.134 15.7959 581.522 14.1701 577.036 14.1701H564.752C560.266 14.1701 556.654 15.7959 553.914 19.0374C551.174 22.2788 549.799 26.5339 549.799 31.7825V51.2514C549.799 56.51 551.174 60.755 553.914 63.9965C556.654 67.2379 560.266 68.8637 564.752 68.8637H577.036Z" fill="#FEECEC"/>
<path d="M620.038 0.943359H634.298L673.246 56.1086V0.943359H688.892V82.0704H674.631L635.683 26.9052V82.0704H620.038V0.943359Z" fill="#F15A2C"/>
<path d="M706.384 79.0598C704.296 77.0527 703.253 74.4234 703.253 71.1819V0.943359H765.142V14.8526H719.239V33.629H761.659V47.5382H719.239V68.1712H765.142V82.0805H714.492C711.171 82.0805 708.461 81.0769 706.374 79.0698L706.384 79.0598Z" fill="#F15A2C"/>
<path d="M862.737 14.8526H837.006V0.943359H904.464V14.8526H878.733V82.0805H862.737V14.8526Z" fill="#F15A2C"/>
<path d="M775.348 82.0704L825.646 15.6152L845.325 41.0352L814.145 82.0704H775.348Z" fill="#F15A2C"/>
<path d="M806.237 41.0353L775.348 0.90332H814.707L825.646 15.6154L806.237 41.0353Z" fill="#FEECEC"/>
<path d="M168.149 127.712C166.624 126.187 165.861 124.129 165.861 121.55H169.534C169.534 123.106 169.975 124.34 170.859 125.263C171.742 126.187 172.906 126.648 174.351 126.648H178.736C180.182 126.648 181.346 126.337 182.209 125.725C183.072 125.103 183.513 124.28 183.513 123.256V121.119C183.513 120.306 183.202 119.613 182.58 119.061C181.958 118.509 181.085 118.138 179.951 117.957L172.765 116.773C170.658 116.432 169.032 115.709 167.888 114.595C166.744 113.492 166.172 112.107 166.172 110.451V108.283C166.172 106.306 166.925 104.721 168.44 103.526C169.955 102.332 171.952 101.73 174.421 101.73H178.887C180.442 101.73 181.817 102.051 183.012 102.693C184.206 103.336 185.139 104.249 185.791 105.423C186.454 106.597 186.775 107.942 186.775 109.467H183.062C183.062 108.153 182.68 107.089 181.918 106.286C181.155 105.483 180.141 105.082 178.877 105.082H174.411C173.066 105.082 171.983 105.373 171.15 105.975C170.317 106.567 169.905 107.38 169.905 108.404V110.18C169.905 111.023 170.206 111.715 170.798 112.267C171.39 112.819 172.243 113.201 173.347 113.411L180.453 114.636C182.64 115.007 184.316 115.719 185.49 116.783C186.665 117.847 187.247 119.182 187.247 120.787V123.357C187.247 125.354 186.474 126.969 184.938 128.174C183.393 129.388 181.356 129.99 178.797 129.99H174.251C171.702 129.99 169.654 129.227 168.129 127.702L168.149 127.712Z" fill="#FEECEC"/>
<path d="M220.735 128.736C219.27 127.893 218.146 126.708 217.343 125.183C216.54 123.658 216.139 121.881 216.139 119.854V111.876C216.139 109.849 216.54 108.072 217.343 106.547C218.146 105.022 219.28 103.837 220.755 102.994C222.23 102.151 223.926 101.73 225.853 101.73H230.038C231.955 101.73 233.651 102.151 235.116 102.994C236.571 103.837 237.705 105.022 238.508 106.547C239.311 108.072 239.712 109.849 239.712 111.876V119.854C239.712 121.881 239.311 123.658 238.508 125.183C237.705 126.708 236.571 127.893 235.096 128.736C233.621 129.579 231.935 130 230.038 130H225.813C223.886 130 222.2 129.579 220.735 128.736ZM229.958 126.648C231.744 126.648 233.199 126.026 234.303 124.772C235.407 123.517 235.959 121.851 235.959 119.774V111.956C235.959 109.879 235.407 108.213 234.303 106.958C233.199 105.704 231.744 105.082 229.958 105.082H225.893C224.107 105.082 222.652 105.704 221.548 106.958C220.444 108.213 219.892 109.879 219.892 111.956V119.774C219.892 121.851 220.434 123.517 221.528 124.772C222.622 126.026 224.057 126.648 225.853 126.648H229.958Z" fill="#FEECEC"/>
<path d="M269.718 102.041H288.716V105.353H273.472V114.556H287.25V117.867H273.472V129.679H269.718V102.031V102.041Z" fill="#FEECEC"/>
<path d="M324.572 105.323H315.811V102.041H337.097V105.323H328.336V129.689H324.582V105.323H324.572Z" fill="#FEECEC"/>
<path d="M369.853 129.057C369.361 128.635 369.04 127.943 368.889 126.969L364.112 102.051H367.866L371.89 124.481H371.93L378.483 103.516H379.948C380.47 103.516 380.912 103.667 381.273 103.968C381.634 104.269 381.915 104.761 382.126 105.453L387.856 124.491H387.897L391.921 102.061H395.674L390.897 126.979C390.717 127.903 390.385 128.585 389.934 129.037C389.482 129.488 388.83 129.709 388.017 129.709H386.441L379.999 108.544H379.958L373.365 129.709H371.79C370.997 129.709 370.365 129.498 369.873 129.077L369.853 129.057Z" fill="#FEECEC"/>
<path d="M438.506 122.413H426.975L424.285 129.679H420.382L431.079 102.031H432.775C433.909 102.031 434.712 102.653 435.184 103.888L445.099 129.679H441.225L438.496 122.413H438.506ZM428.079 119.252H437.402L432.775 106.768H432.735L428.079 119.252Z" fill="#FEECEC"/>
<path d="M473.61 102.041H487.469C489.606 102.041 491.323 102.643 492.627 103.837C493.932 105.032 494.584 106.607 494.584 108.554V111.394C494.584 112.759 494.153 113.973 493.3 115.027C492.447 116.081 491.282 116.843 489.807 117.315V117.355C491.363 118.278 492.517 119.964 493.279 122.413L495.447 129.679H491.573L489.436 122.574C489.065 121.339 488.483 120.366 487.68 119.653C486.877 118.941 485.964 118.59 484.93 118.59H477.343V129.689H473.59V102.041H473.61ZM486.445 115.268C487.76 115.268 488.824 114.907 489.627 114.204C490.429 113.492 490.831 112.558 490.831 111.404V108.524C490.831 107.581 490.51 106.818 489.877 106.236C489.245 105.654 488.422 105.363 487.389 105.363H477.353V115.278H486.435L486.445 115.268Z" fill="#FEECEC"/>
<path d="M525.403 128.896C524.861 128.374 524.59 127.642 524.59 126.729V102.051H543.979V105.333H528.344V113.943H542.795V117.185H528.344V126.428H543.979V129.709H527.591C526.668 129.709 525.935 129.448 525.403 128.916V128.896Z" fill="#FEECEC"/>
<path d="M609.993 128.896C609.451 128.374 609.18 127.662 609.18 126.758V102.041H612.933V126.367H627.936V129.689H612.18C611.257 129.689 610.524 129.428 609.993 128.896Z" fill="#FEECEC"/>
<path d="M657.009 102.041H660.762V129.689H657.009V102.041Z" fill="#FEECEC"/>
<path d="M691.963 102.041H695.435L705.029 119.774L714.392 102.041H717.864V129.689H714.191V109.076L706.926 122.664C706.614 123.246 706.313 123.647 706.042 123.888C705.761 124.129 705.44 124.25 705.079 124.25H704.015L695.686 109.086V129.699H691.973V102.051L691.963 102.041Z" fill="#FEECEC"/>
<path d="M749.065 102.041H752.818V129.689H749.065V102.041Z" fill="#FEECEC"/>
<path d="M790.802 105.323H782.041V102.041H803.327V105.323H794.566V129.689H790.812V105.323H790.802Z" fill="#FEECEC"/>
<path d="M832.961 128.896C832.42 128.374 832.149 127.642 832.149 126.729V102.051H851.537V105.333H835.902V113.943H850.353V117.185H835.902V126.428H851.537V129.709H835.149C834.226 129.709 833.493 129.448 832.961 128.916V128.896Z" fill="#FEECEC"/>
<path d="M881.965 128.896C881.423 128.374 881.152 127.642 881.152 126.729V102.051H893.195C895.192 102.051 896.948 102.433 898.463 103.195C899.979 103.958 901.153 105.042 901.976 106.457C902.809 107.862 903.22 109.478 903.22 111.294V119.664C903.22 122.955 902.387 125.444 900.711 127.15C899.035 128.846 896.587 129.699 893.345 129.699H884.143C883.219 129.699 882.487 129.438 881.955 128.906L881.965 128.896ZM893.235 126.327C895.292 126.327 896.848 125.765 897.891 124.631C898.945 123.497 899.467 121.811 899.467 119.573V111.354C899.467 109.568 898.885 108.123 897.711 107.029C896.536 105.935 894.991 105.393 893.074 105.393H884.895V126.327H893.225H893.235Z" fill="#FEECEC"/>
<defs>
<linearGradient id="paint0_linear_10_147" x1="26.8479" y1="120.419" x2="103.901" y2="43.3554" gradientUnits="userSpaceOnUse">
<stop stop-color="#EE2347"/>
<stop offset="1" stop-color="#FAA31B"/>
</linearGradient>
</defs>
</svg>